<svg viewBox="0 0 200 200" xmlns="http://www.w3.org/2000/svg">
  <path fill="#FF0066" d="M46.2,-78.5C59.8,-72.3,70.6,-59.6,75.3,-45.5C80,-31.4,78.6,-15.7,77.7,-0.5C76.9,14.7,76.7,29.4,72,43.6C67.3,57.7,58.2,71.3,45.4,79.2C32.7,87.1,16.3,89.2,0.2,88.9C-16,88.6,-31.9,85.8,-44.9,78C-57.8,70.3,-67.7,57.5,-76.1,43.7C-84.5,29.9,-91.4,14.9,-90.8,0.3C-90.2,-14.2,-82.1,-28.5,-73.5,-41.9C-64.9,-55.4,-55.7,-68,-43.4,-75C-31,-81.9,-15.5,-83.2,0.4,-83.9C16.3,-84.6,32.7,-84.7,46.2,-78.5Z" transform="translate(100 100)" />
</svg>